<mxfile host="app.diagrams.net" modified="2023-08-29T03:12:01.861Z" agent="Mozilla/5.0 (Windows NT 10.0; Win64; x64) AppleWebKit/537.36 (KHTML, like Gecko) Chrome/116.0.0.0 Safari/537.36" etag="yfJko-VErRqadRRnAzhj" version="21.6.9" type="github" pages="2">
  <diagram id="C5RBs43oDa-KdzZeNtuy" name="Page-1">
    <mxGraphModel dx="1088" dy="690" grid="1" gridSize="10" guides="1" tooltips="1" connect="1" arrows="1" fold="1" page="1" pageScale="1" pageWidth="827" pageHeight="1169" math="0" shadow="0">
      <root>
        <mxCell id="WIyWlLk6GJQsqaUBKTNV-0" />
        <mxCell id="WIyWlLk6GJQsqaUBKTNV-1" parent="WIyWlLk6GJQsqaUBKTNV-0" />
        <mxCell id="gE7fbPmSmbGPCB_UaAwu-1" style="edgeStyle=none;curved=1;rounded=0;orthogonalLoop=1;jettySize=auto;html=1;exitX=0.5;exitY=1;exitDx=0;exitDy=0;fontSize=12;startSize=8;endSize=8;entryX=0.5;entryY=0;entryDx=0;entryDy=0;" parent="WIyWlLk6GJQsqaUBKTNV-1" source="gE7fbPmSmbGPCB_UaAwu-0" target="gE7fbPmSmbGPCB_UaAwu-3" edge="1">
          <mxGeometry relative="1" as="geometry">
            <mxPoint x="360" y="270" as="targetPoint" />
          </mxGeometry>
        </mxCell>
        <mxCell id="gE7fbPmSmbGPCB_UaAwu-2" style="edgeStyle=none;curved=1;rounded=0;orthogonalLoop=1;jettySize=auto;html=1;exitX=0.5;exitY=1;exitDx=0;exitDy=0;fontSize=12;startSize=8;endSize=8;entryX=0.5;entryY=0;entryDx=0;entryDy=0;" parent="WIyWlLk6GJQsqaUBKTNV-1" source="gE7fbPmSmbGPCB_UaAwu-0" target="gE7fbPmSmbGPCB_UaAwu-4" edge="1">
          <mxGeometry relative="1" as="geometry">
            <mxPoint x="460" y="270" as="targetPoint" />
          </mxGeometry>
        </mxCell>
        <mxCell id="gE7fbPmSmbGPCB_UaAwu-0" value="10" style="ellipse;whiteSpace=wrap;html=1;aspect=fixed;fontSize=16;" parent="WIyWlLk6GJQsqaUBKTNV-1" vertex="1">
          <mxGeometry x="370" y="90" width="80" height="80" as="geometry" />
        </mxCell>
        <mxCell id="gE7fbPmSmbGPCB_UaAwu-5" style="edgeStyle=none;curved=1;rounded=0;orthogonalLoop=1;jettySize=auto;html=1;fontSize=12;startSize=8;endSize=8;entryX=0.5;entryY=0;entryDx=0;entryDy=0;" parent="WIyWlLk6GJQsqaUBKTNV-1" source="gE7fbPmSmbGPCB_UaAwu-3" target="gE7fbPmSmbGPCB_UaAwu-7" edge="1">
          <mxGeometry relative="1" as="geometry">
            <mxPoint x="200" y="400" as="targetPoint" />
          </mxGeometry>
        </mxCell>
        <mxCell id="gE7fbPmSmbGPCB_UaAwu-6" style="edgeStyle=none;curved=1;rounded=0;orthogonalLoop=1;jettySize=auto;html=1;fontSize=12;startSize=8;endSize=8;" parent="WIyWlLk6GJQsqaUBKTNV-1" source="gE7fbPmSmbGPCB_UaAwu-3" edge="1">
          <mxGeometry relative="1" as="geometry">
            <mxPoint x="400" y="400" as="targetPoint" />
          </mxGeometry>
        </mxCell>
        <mxCell id="gE7fbPmSmbGPCB_UaAwu-3" value="20" style="ellipse;whiteSpace=wrap;html=1;aspect=fixed;fontSize=16;" parent="WIyWlLk6GJQsqaUBKTNV-1" vertex="1">
          <mxGeometry x="270" y="260" width="80" height="80" as="geometry" />
        </mxCell>
        <mxCell id="gE7fbPmSmbGPCB_UaAwu-26" style="edgeStyle=none;curved=1;rounded=0;orthogonalLoop=1;jettySize=auto;html=1;exitX=0;exitY=0.5;exitDx=0;exitDy=0;fontSize=12;startSize=8;endSize=8;" parent="WIyWlLk6GJQsqaUBKTNV-1" source="gE7fbPmSmbGPCB_UaAwu-4" target="gE7fbPmSmbGPCB_UaAwu-20" edge="1">
          <mxGeometry relative="1" as="geometry">
            <Array as="points">
              <mxPoint x="450" y="330" />
            </Array>
          </mxGeometry>
        </mxCell>
        <mxCell id="gE7fbPmSmbGPCB_UaAwu-27" style="edgeStyle=none;curved=1;rounded=0;orthogonalLoop=1;jettySize=auto;html=1;exitX=1;exitY=0.5;exitDx=0;exitDy=0;entryX=0.547;entryY=-0.046;entryDx=0;entryDy=0;entryPerimeter=0;fontSize=12;startSize=8;endSize=8;" parent="WIyWlLk6GJQsqaUBKTNV-1" source="gE7fbPmSmbGPCB_UaAwu-4" target="gE7fbPmSmbGPCB_UaAwu-19" edge="1">
          <mxGeometry relative="1" as="geometry">
            <Array as="points">
              <mxPoint x="602" y="320" />
            </Array>
          </mxGeometry>
        </mxCell>
        <mxCell id="gE7fbPmSmbGPCB_UaAwu-4" value="5" style="ellipse;whiteSpace=wrap;html=1;aspect=fixed;fontSize=16;" parent="WIyWlLk6GJQsqaUBKTNV-1" vertex="1">
          <mxGeometry x="480" y="260" width="80" height="80" as="geometry" />
        </mxCell>
        <mxCell id="gE7fbPmSmbGPCB_UaAwu-22" style="edgeStyle=none;curved=1;rounded=0;orthogonalLoop=1;jettySize=auto;html=1;exitX=0;exitY=0.5;exitDx=0;exitDy=0;entryX=0.49;entryY=-0.018;entryDx=0;entryDy=0;entryPerimeter=0;fontSize=12;startSize=8;endSize=8;" parent="WIyWlLk6GJQsqaUBKTNV-1" source="gE7fbPmSmbGPCB_UaAwu-7" target="gE7fbPmSmbGPCB_UaAwu-9" edge="1">
          <mxGeometry relative="1" as="geometry">
            <Array as="points">
              <mxPoint x="130" y="470" />
            </Array>
          </mxGeometry>
        </mxCell>
        <mxCell id="gE7fbPmSmbGPCB_UaAwu-23" style="edgeStyle=none;curved=1;rounded=0;orthogonalLoop=1;jettySize=auto;html=1;exitX=1;exitY=0.5;exitDx=0;exitDy=0;entryX=0.574;entryY=0.077;entryDx=0;entryDy=0;entryPerimeter=0;fontSize=12;startSize=8;endSize=8;" parent="WIyWlLk6GJQsqaUBKTNV-1" source="gE7fbPmSmbGPCB_UaAwu-7" target="gE7fbPmSmbGPCB_UaAwu-16" edge="1">
          <mxGeometry relative="1" as="geometry">
            <Array as="points">
              <mxPoint x="270" y="470" />
            </Array>
          </mxGeometry>
        </mxCell>
        <mxCell id="gE7fbPmSmbGPCB_UaAwu-7" value="9" style="ellipse;whiteSpace=wrap;html=1;aspect=fixed;fontSize=16;" parent="WIyWlLk6GJQsqaUBKTNV-1" vertex="1">
          <mxGeometry x="160" y="400" width="80" height="80" as="geometry" />
        </mxCell>
        <mxCell id="gE7fbPmSmbGPCB_UaAwu-24" style="edgeStyle=none;curved=1;rounded=0;orthogonalLoop=1;jettySize=auto;html=1;exitX=0;exitY=0.5;exitDx=0;exitDy=0;entryX=0.36;entryY=0.077;entryDx=0;entryDy=0;entryPerimeter=0;fontSize=12;startSize=8;endSize=8;" parent="WIyWlLk6GJQsqaUBKTNV-1" source="gE7fbPmSmbGPCB_UaAwu-8" target="gE7fbPmSmbGPCB_UaAwu-17" edge="1">
          <mxGeometry relative="1" as="geometry">
            <Array as="points">
              <mxPoint x="320" y="470" />
            </Array>
          </mxGeometry>
        </mxCell>
        <mxCell id="gE7fbPmSmbGPCB_UaAwu-25" style="edgeStyle=none;curved=1;rounded=0;orthogonalLoop=1;jettySize=auto;html=1;exitX=1;exitY=0.5;exitDx=0;exitDy=0;fontSize=12;startSize=8;endSize=8;" parent="WIyWlLk6GJQsqaUBKTNV-1" source="gE7fbPmSmbGPCB_UaAwu-8" target="gE7fbPmSmbGPCB_UaAwu-18" edge="1">
          <mxGeometry relative="1" as="geometry">
            <Array as="points">
              <mxPoint x="480" y="470" />
            </Array>
          </mxGeometry>
        </mxCell>
        <mxCell id="gE7fbPmSmbGPCB_UaAwu-8" value="3" style="ellipse;whiteSpace=wrap;html=1;aspect=fixed;fontSize=16;" parent="WIyWlLk6GJQsqaUBKTNV-1" vertex="1">
          <mxGeometry x="360" y="400" width="80" height="80" as="geometry" />
        </mxCell>
        <mxCell id="gE7fbPmSmbGPCB_UaAwu-9" value="-1" style="text;html=1;align=center;verticalAlign=middle;resizable=0;points=[];autosize=1;strokeColor=#d6b656;fillColor=#fff2cc;fontSize=16;" parent="WIyWlLk6GJQsqaUBKTNV-1" vertex="1">
          <mxGeometry x="110" y="498" width="40" height="30" as="geometry" />
        </mxCell>
        <mxCell id="gE7fbPmSmbGPCB_UaAwu-16" value="-1" style="text;html=1;align=center;verticalAlign=middle;resizable=0;points=[];autosize=1;strokeColor=#d6b656;fillColor=#fff2cc;fontSize=16;" parent="WIyWlLk6GJQsqaUBKTNV-1" vertex="1">
          <mxGeometry x="220" y="498" width="40" height="30" as="geometry" />
        </mxCell>
        <mxCell id="gE7fbPmSmbGPCB_UaAwu-17" value="-1" style="text;html=1;align=center;verticalAlign=middle;resizable=0;points=[];autosize=1;strokeColor=#d6b656;fillColor=#fff2cc;fontSize=16;" parent="WIyWlLk6GJQsqaUBKTNV-1" vertex="1">
          <mxGeometry x="340" y="498" width="40" height="30" as="geometry" />
        </mxCell>
        <mxCell id="gE7fbPmSmbGPCB_UaAwu-18" value="-1" style="text;html=1;align=center;verticalAlign=middle;resizable=0;points=[];autosize=1;strokeColor=#d6b656;fillColor=#fff2cc;fontSize=16;" parent="WIyWlLk6GJQsqaUBKTNV-1" vertex="1">
          <mxGeometry x="440" y="498" width="40" height="30" as="geometry" />
        </mxCell>
        <mxCell id="gE7fbPmSmbGPCB_UaAwu-19" value="-1" style="text;html=1;align=center;verticalAlign=middle;resizable=0;points=[];autosize=1;strokeColor=#d6b656;fillColor=#fff2cc;fontSize=16;" parent="WIyWlLk6GJQsqaUBKTNV-1" vertex="1">
          <mxGeometry x="580" y="360" width="40" height="30" as="geometry" />
        </mxCell>
        <mxCell id="gE7fbPmSmbGPCB_UaAwu-20" value="-1" style="text;html=1;align=center;verticalAlign=middle;resizable=0;points=[];autosize=1;strokeColor=#d6b656;fillColor=#fff2cc;fontSize=16;" parent="WIyWlLk6GJQsqaUBKTNV-1" vertex="1">
          <mxGeometry x="440" y="360" width="40" height="30" as="geometry" />
        </mxCell>
        <mxCell id="gE7fbPmSmbGPCB_UaAwu-31" value="9" style="text;html=1;align=center;verticalAlign=middle;resizable=0;points=[];autosize=1;strokeColor=#b85450;fillColor=#f8cecc;fontSize=16;" parent="WIyWlLk6GJQsqaUBKTNV-1" vertex="1">
          <mxGeometry x="90" y="430" width="30" height="30" as="geometry" />
        </mxCell>
        <mxCell id="gE7fbPmSmbGPCB_UaAwu-33" value="" style="endArrow=classic;html=1;rounded=0;fontSize=12;startSize=8;endSize=8;curved=1;entryX=0;entryY=0.5;entryDx=0;entryDy=0;" parent="WIyWlLk6GJQsqaUBKTNV-1" target="gE7fbPmSmbGPCB_UaAwu-3" edge="1">
          <mxGeometry width="50" height="50" relative="1" as="geometry">
            <mxPoint x="100" y="430" as="sourcePoint" />
            <mxPoint x="150" y="380" as="targetPoint" />
            <Array as="points">
              <mxPoint x="100" y="290" />
            </Array>
          </mxGeometry>
        </mxCell>
        <mxCell id="gE7fbPmSmbGPCB_UaAwu-34" value="3" style="text;html=1;align=center;verticalAlign=middle;resizable=0;points=[];autosize=1;strokeColor=#b85450;fillColor=#f8cecc;fontSize=16;" parent="WIyWlLk6GJQsqaUBKTNV-1" vertex="1">
          <mxGeometry x="485" y="418" width="30" height="30" as="geometry" />
        </mxCell>
        <mxCell id="gE7fbPmSmbGPCB_UaAwu-35" value="" style="endArrow=classic;html=1;rounded=0;fontSize=12;startSize=8;endSize=8;curved=1;entryX=1.008;entryY=0.418;entryDx=0;entryDy=0;entryPerimeter=0;exitX=-0.071;exitY=0.508;exitDx=0;exitDy=0;exitPerimeter=0;" parent="WIyWlLk6GJQsqaUBKTNV-1" source="gE7fbPmSmbGPCB_UaAwu-34" target="gE7fbPmSmbGPCB_UaAwu-3" edge="1">
          <mxGeometry width="50" height="50" relative="1" as="geometry">
            <mxPoint x="510" y="490" as="sourcePoint" />
            <mxPoint x="560" y="440" as="targetPoint" />
            <Array as="points">
              <mxPoint x="400" y="380" />
            </Array>
          </mxGeometry>
        </mxCell>
        <mxCell id="gE7fbPmSmbGPCB_UaAwu-36" value="20" style="text;html=1;align=center;verticalAlign=middle;resizable=0;points=[];autosize=1;strokeColor=#b85450;fillColor=#f8cecc;fontSize=16;" parent="WIyWlLk6GJQsqaUBKTNV-1" vertex="1">
          <mxGeometry x="220" y="210" width="40" height="30" as="geometry" />
        </mxCell>
        <mxCell id="gE7fbPmSmbGPCB_UaAwu-37" value="" style="endArrow=classic;html=1;rounded=0;fontSize=12;startSize=8;endSize=8;curved=1;entryX=0;entryY=0.5;entryDx=0;entryDy=0;exitX=0.456;exitY=-0.068;exitDx=0;exitDy=0;exitPerimeter=0;" parent="WIyWlLk6GJQsqaUBKTNV-1" source="gE7fbPmSmbGPCB_UaAwu-36" target="gE7fbPmSmbGPCB_UaAwu-0" edge="1">
          <mxGeometry width="50" height="50" relative="1" as="geometry">
            <mxPoint x="260" y="190" as="sourcePoint" />
            <mxPoint x="310" y="140" as="targetPoint" />
            <Array as="points">
              <mxPoint x="210" y="140" />
            </Array>
          </mxGeometry>
        </mxCell>
        <mxCell id="gE7fbPmSmbGPCB_UaAwu-38" value="5" style="text;html=1;align=center;verticalAlign=middle;resizable=0;points=[];autosize=1;strokeColor=#b85450;fillColor=#f8cecc;fontSize=16;" parent="WIyWlLk6GJQsqaUBKTNV-1" vertex="1">
          <mxGeometry x="555" y="188" width="30" height="30" as="geometry" />
        </mxCell>
        <mxCell id="gE7fbPmSmbGPCB_UaAwu-39" value="" style="endArrow=classic;html=1;rounded=0;fontSize=12;startSize=8;endSize=8;curved=1;entryX=1;entryY=0.5;entryDx=0;entryDy=0;exitX=0.397;exitY=-0.027;exitDx=0;exitDy=0;exitPerimeter=0;" parent="WIyWlLk6GJQsqaUBKTNV-1" source="gE7fbPmSmbGPCB_UaAwu-38" target="gE7fbPmSmbGPCB_UaAwu-0" edge="1">
          <mxGeometry width="50" height="50" relative="1" as="geometry">
            <mxPoint x="580" y="200" as="sourcePoint" />
            <mxPoint x="630" y="150" as="targetPoint" />
            <Array as="points">
              <mxPoint x="580" y="120" />
            </Array>
          </mxGeometry>
        </mxCell>
        <mxCell id="gE7fbPmSmbGPCB_UaAwu-40" value="20&amp;gt;10&amp;gt;5" style="text;html=1;align=center;verticalAlign=middle;resizable=0;points=[];autosize=1;strokeColor=#9673a6;fillColor=#e1d5e7;fontSize=16;" parent="WIyWlLk6GJQsqaUBKTNV-1" vertex="1">
          <mxGeometry x="345" y="38" width="90" height="30" as="geometry" />
        </mxCell>
        <mxCell id="gE7fbPmSmbGPCB_UaAwu-41" value="Hence, answer is 20" style="text;html=1;align=center;verticalAlign=middle;resizable=0;points=[];autosize=1;strokeColor=#9673a6;fillColor=#e1d5e7;fontSize=16;" parent="WIyWlLk6GJQsqaUBKTNV-1" vertex="1">
          <mxGeometry x="435" y="38" width="170" height="30" as="geometry" />
        </mxCell>
      </root>
    </mxGraphModel>
  </diagram>
  <diagram id="QLZnjwXswbP_SWDg3xuL" name="Min &amp; Max in Binary Tree">
    <mxGraphModel dx="1280" dy="1612" grid="1" gridSize="12" guides="1" tooltips="1" connect="1" arrows="1" fold="1" page="0" pageScale="1" pageWidth="1169" pageHeight="827" math="0" shadow="0">
      <root>
        <mxCell id="0" />
        <mxCell id="1" parent="0" />
        <mxCell id="F1xKsCpg9n-DJjHn_XTE-19" style="edgeStyle=none;curved=1;rounded=0;sketch=1;hachureGap=4;jiggle=2;curveFitting=1;orthogonalLoop=1;jettySize=auto;html=1;exitX=0.5;exitY=1;exitDx=0;exitDy=0;exitPerimeter=0;fontFamily=Architects Daughter;fontSource=https%3A%2F%2Ffonts.googleapis.com%2Fcss%3Ffamily%3DArchitects%2BDaughter;fontSize=16;startSize=8;endSize=8;" edge="1" parent="1" source="F1xKsCpg9n-DJjHn_XTE-16">
          <mxGeometry relative="1" as="geometry">
            <mxPoint x="936" y="12" as="targetPoint" />
          </mxGeometry>
        </mxCell>
        <mxCell id="F1xKsCpg9n-DJjHn_XTE-25" style="edgeStyle=none;curved=1;rounded=0;sketch=1;hachureGap=4;jiggle=2;curveFitting=1;orthogonalLoop=1;jettySize=auto;html=1;fontFamily=Architects Daughter;fontSource=https%3A%2F%2Ffonts.googleapis.com%2Fcss%3Ffamily%3DArchitects%2BDaughter;fontSize=16;startSize=8;endSize=8;" edge="1" parent="1">
          <mxGeometry relative="1" as="geometry">
            <mxPoint x="1115" y="-132" as="targetPoint" />
            <mxPoint x="1004" y="-152.5147058823528" as="sourcePoint" />
            <Array as="points">
              <mxPoint x="1043" y="-168" />
            </Array>
          </mxGeometry>
        </mxCell>
        <mxCell id="F1xKsCpg9n-DJjHn_XTE-16" value="" style="verticalLabelPosition=bottom;verticalAlign=top;html=1;shape=mxgraph.basic.acute_triangle;dx=0.5;sketch=1;hachureGap=4;jiggle=2;curveFitting=1;fontFamily=Architects Daughter;fontSource=https%3A%2F%2Ffonts.googleapis.com%2Fcss%3Ffamily%3DArchitects%2BDaughter;fontSize=20;" vertex="1" parent="1">
          <mxGeometry x="847" y="-216" width="194" height="156" as="geometry" />
        </mxCell>
        <mxCell id="F1xKsCpg9n-DJjHn_XTE-17" style="edgeStyle=none;curved=1;rounded=0;sketch=1;hachureGap=4;jiggle=2;curveFitting=1;orthogonalLoop=1;jettySize=auto;html=1;exitX=0.5;exitY=1;exitDx=0;exitDy=0;exitPerimeter=0;fontFamily=Architects Daughter;fontSource=https%3A%2F%2Ffonts.googleapis.com%2Fcss%3Ffamily%3DArchitects%2BDaughter;fontSize=16;startSize=8;endSize=8;" edge="1" parent="1" source="F1xKsCpg9n-DJjHn_XTE-15">
          <mxGeometry relative="1" as="geometry">
            <mxPoint x="750.0952380952381" y="12" as="targetPoint" />
          </mxGeometry>
        </mxCell>
        <mxCell id="F1xKsCpg9n-DJjHn_XTE-21" style="edgeStyle=none;curved=1;rounded=0;sketch=1;hachureGap=4;jiggle=2;curveFitting=1;orthogonalLoop=1;jettySize=auto;html=1;exitX=0;exitY=0;exitDx=51;exitDy=84;exitPerimeter=0;fontFamily=Architects Daughter;fontSource=https%3A%2F%2Ffonts.googleapis.com%2Fcss%3Ffamily%3DArchitects%2BDaughter;fontSize=16;startSize=8;endSize=8;" edge="1" parent="1" source="F1xKsCpg9n-DJjHn_XTE-15">
          <mxGeometry relative="1" as="geometry">
            <mxPoint x="684" y="-227.99999999999994" as="targetPoint" />
          </mxGeometry>
        </mxCell>
        <mxCell id="F1xKsCpg9n-DJjHn_XTE-23" style="edgeStyle=none;curved=1;rounded=0;sketch=1;hachureGap=4;jiggle=2;curveFitting=1;orthogonalLoop=1;jettySize=auto;html=1;fontFamily=Architects Daughter;fontSource=https%3A%2F%2Ffonts.googleapis.com%2Fcss%3Ffamily%3DArchitects%2BDaughter;fontSize=16;startSize=8;endSize=8;" edge="1" parent="1">
          <mxGeometry relative="1" as="geometry">
            <mxPoint x="558" y="-120" as="targetPoint" />
            <mxPoint x="680" y="-141.8275862068965" as="sourcePoint" />
            <Array as="points">
              <mxPoint x="666" y="-144" />
              <mxPoint x="594" y="-168" />
            </Array>
          </mxGeometry>
        </mxCell>
        <mxCell id="F1xKsCpg9n-DJjHn_XTE-15" value="" style="verticalLabelPosition=bottom;verticalAlign=top;html=1;shape=mxgraph.basic.acute_triangle;dx=0.5;sketch=1;hachureGap=4;jiggle=2;curveFitting=1;fontFamily=Architects Daughter;fontSource=https%3A%2F%2Ffonts.googleapis.com%2Fcss%3Ffamily%3DArchitects%2BDaughter;fontSize=20;" vertex="1" parent="1">
          <mxGeometry x="638" y="-216" width="204" height="156" as="geometry" />
        </mxCell>
        <mxCell id="F1xKsCpg9n-DJjHn_XTE-3" style="edgeStyle=none;curved=1;rounded=0;sketch=1;hachureGap=4;jiggle=2;curveFitting=1;orthogonalLoop=1;jettySize=auto;html=1;fontFamily=Architects Daughter;fontSource=https%3A%2F%2Ffonts.googleapis.com%2Fcss%3Ffamily%3DArchitects%2BDaughter;fontSize=16;startSize=8;endSize=8;entryX=0.598;entryY=-0.083;entryDx=0;entryDy=0;entryPerimeter=0;" edge="1" parent="1" source="F1xKsCpg9n-DJjHn_XTE-2" target="F1xKsCpg9n-DJjHn_XTE-4">
          <mxGeometry relative="1" as="geometry">
            <mxPoint x="792" y="-168" as="targetPoint" />
          </mxGeometry>
        </mxCell>
        <mxCell id="F1xKsCpg9n-DJjHn_XTE-6" style="edgeStyle=none;curved=1;rounded=0;sketch=1;hachureGap=4;jiggle=2;curveFitting=1;orthogonalLoop=1;jettySize=auto;html=1;fontFamily=Architects Daughter;fontSource=https%3A%2F%2Ffonts.googleapis.com%2Fcss%3Ffamily%3DArchitects%2BDaughter;fontSize=16;startSize=8;endSize=8;entryX=0.502;entryY=-0.051;entryDx=0;entryDy=0;entryPerimeter=0;" edge="1" parent="1" source="F1xKsCpg9n-DJjHn_XTE-2" target="F1xKsCpg9n-DJjHn_XTE-5">
          <mxGeometry relative="1" as="geometry" />
        </mxCell>
        <mxCell id="F1xKsCpg9n-DJjHn_XTE-29" style="edgeStyle=none;curved=1;rounded=0;sketch=1;hachureGap=4;jiggle=2;curveFitting=1;orthogonalLoop=1;jettySize=auto;html=1;fontFamily=Architects Daughter;fontSource=https%3A%2F%2Ffonts.googleapis.com%2Fcss%3Ffamily%3DArchitects%2BDaughter;fontSize=16;startSize=8;endSize=8;" edge="1" parent="1" source="F1xKsCpg9n-DJjHn_XTE-2">
          <mxGeometry relative="1" as="geometry">
            <mxPoint x="848" y="-348" as="targetPoint" />
          </mxGeometry>
        </mxCell>
        <mxCell id="F1xKsCpg9n-DJjHn_XTE-2" value="2" style="text;html=1;align=center;verticalAlign=middle;resizable=0;points=[];autosize=1;strokeColor=#9673a6;fillColor=#e1d5e7;fontSize=20;fontFamily=Architects Daughter;gradientColor=none;dashed=1;" vertex="1" parent="1">
          <mxGeometry x="830" y="-288" width="36" height="36" as="geometry" />
        </mxCell>
        <mxCell id="F1xKsCpg9n-DJjHn_XTE-9" style="edgeStyle=none;curved=1;rounded=0;sketch=1;hachureGap=4;jiggle=2;curveFitting=1;orthogonalLoop=1;jettySize=auto;html=1;entryX=0.371;entryY=-0.039;entryDx=0;entryDy=0;entryPerimeter=0;fontFamily=Architects Daughter;fontSource=https%3A%2F%2Ffonts.googleapis.com%2Fcss%3Ffamily%3DArchitects%2BDaughter;fontSize=16;startSize=8;endSize=8;" edge="1" parent="1" source="F1xKsCpg9n-DJjHn_XTE-4" target="F1xKsCpg9n-DJjHn_XTE-7">
          <mxGeometry relative="1" as="geometry" />
        </mxCell>
        <mxCell id="F1xKsCpg9n-DJjHn_XTE-10" value="" style="edgeStyle=none;curved=1;rounded=0;sketch=1;hachureGap=4;jiggle=2;curveFitting=1;orthogonalLoop=1;jettySize=auto;html=1;fontFamily=Architects Daughter;fontSource=https%3A%2F%2Ffonts.googleapis.com%2Fcss%3Ffamily%3DArchitects%2BDaughter;fontSize=16;startSize=8;endSize=8;" edge="1" parent="1" source="F1xKsCpg9n-DJjHn_XTE-4" target="F1xKsCpg9n-DJjHn_XTE-8">
          <mxGeometry relative="1" as="geometry">
            <Array as="points">
              <mxPoint x="792" y="-96" />
            </Array>
          </mxGeometry>
        </mxCell>
        <mxCell id="F1xKsCpg9n-DJjHn_XTE-4" value="3" style="text;html=1;align=center;verticalAlign=middle;resizable=0;points=[];autosize=1;strokeColor=#9673a6;fillColor=#e1d5e7;fontSize=20;fontFamily=Architects Daughter;gradientColor=none;dashed=1;" vertex="1" parent="1">
          <mxGeometry x="722" y="-180" width="36" height="36" as="geometry" />
        </mxCell>
        <mxCell id="F1xKsCpg9n-DJjHn_XTE-13" style="edgeStyle=none;curved=1;rounded=0;sketch=1;hachureGap=4;jiggle=2;curveFitting=1;orthogonalLoop=1;jettySize=auto;html=1;entryX=0.496;entryY=-0.039;entryDx=0;entryDy=0;entryPerimeter=0;fontFamily=Architects Daughter;fontSource=https%3A%2F%2Ffonts.googleapis.com%2Fcss%3Ffamily%3DArchitects%2BDaughter;fontSize=16;startSize=8;endSize=8;" edge="1" parent="1" source="F1xKsCpg9n-DJjHn_XTE-5" target="F1xKsCpg9n-DJjHn_XTE-11">
          <mxGeometry relative="1" as="geometry" />
        </mxCell>
        <mxCell id="F1xKsCpg9n-DJjHn_XTE-14" style="edgeStyle=none;curved=1;rounded=0;sketch=1;hachureGap=4;jiggle=2;curveFitting=1;orthogonalLoop=1;jettySize=auto;html=1;entryX=0.487;entryY=0.018;entryDx=0;entryDy=0;entryPerimeter=0;fontFamily=Architects Daughter;fontSource=https%3A%2F%2Ffonts.googleapis.com%2Fcss%3Ffamily%3DArchitects%2BDaughter;fontSize=16;startSize=8;endSize=8;" edge="1" parent="1" source="F1xKsCpg9n-DJjHn_XTE-5" target="F1xKsCpg9n-DJjHn_XTE-12">
          <mxGeometry relative="1" as="geometry" />
        </mxCell>
        <mxCell id="F1xKsCpg9n-DJjHn_XTE-5" value="4" style="text;html=1;align=center;verticalAlign=middle;resizable=0;points=[];autosize=1;strokeColor=#9673a6;fillColor=#e1d5e7;fontSize=20;fontFamily=Architects Daughter;gradientColor=none;dashed=1;" vertex="1" parent="1">
          <mxGeometry x="926" y="-180" width="36" height="36" as="geometry" />
        </mxCell>
        <mxCell id="F1xKsCpg9n-DJjHn_XTE-7" value="5" style="text;html=1;align=center;verticalAlign=middle;resizable=0;points=[];autosize=1;strokeColor=#9673a6;fillColor=#e1d5e7;fontSize=20;fontFamily=Architects Daughter;gradientColor=none;dashed=1;" vertex="1" parent="1">
          <mxGeometry x="680" y="-108" width="36" height="36" as="geometry" />
        </mxCell>
        <mxCell id="F1xKsCpg9n-DJjHn_XTE-8" value="6" style="text;html=1;align=center;verticalAlign=middle;resizable=0;points=[];autosize=1;strokeColor=#9673a6;fillColor=#e1d5e7;fontSize=20;fontFamily=Architects Daughter;gradientColor=none;dashed=1;" vertex="1" parent="1">
          <mxGeometry x="764" y="-108" width="36" height="36" as="geometry" />
        </mxCell>
        <mxCell id="F1xKsCpg9n-DJjHn_XTE-11" value="7" style="text;html=1;align=center;verticalAlign=middle;resizable=0;points=[];autosize=1;strokeColor=#9673a6;fillColor=#e1d5e7;fontSize=20;fontFamily=Architects Daughter;gradientColor=none;dashed=1;" vertex="1" parent="1">
          <mxGeometry x="890" y="-108" width="36" height="36" as="geometry" />
        </mxCell>
        <mxCell id="F1xKsCpg9n-DJjHn_XTE-12" value="1" style="text;html=1;align=center;verticalAlign=middle;resizable=0;points=[];autosize=1;strokeColor=#9673a6;fillColor=#e1d5e7;fontSize=20;fontFamily=Architects Daughter;gradientColor=none;dashed=1;" vertex="1" parent="1">
          <mxGeometry x="980" y="-108" width="24" height="36" as="geometry" />
        </mxCell>
        <mxCell id="F1xKsCpg9n-DJjHn_XTE-18" value="Left Side" style="text;html=1;align=center;verticalAlign=middle;resizable=0;points=[];autosize=1;strokeColor=none;fillColor=none;fontSize=20;fontFamily=Architects Daughter;" vertex="1" parent="1">
          <mxGeometry x="680" y="7" width="120" height="36" as="geometry" />
        </mxCell>
        <mxCell id="F1xKsCpg9n-DJjHn_XTE-20" value="Right Side" style="text;html=1;align=center;verticalAlign=middle;resizable=0;points=[];autosize=1;strokeColor=none;fillColor=none;fontSize=20;fontFamily=Architects Daughter;" vertex="1" parent="1">
          <mxGeometry x="884" y="7" width="120" height="36" as="geometry" />
        </mxCell>
        <mxCell id="F1xKsCpg9n-DJjHn_XTE-22" value="Will bring two ans&lt;br&gt;Mini &amp;amp; Max" style="text;html=1;align=center;verticalAlign=middle;resizable=0;points=[];autosize=1;strokeColor=none;fillColor=none;fontSize=20;fontFamily=Architects Daughter;" vertex="1" parent="1">
          <mxGeometry x="564" y="-288" width="192" height="60" as="geometry" />
        </mxCell>
        <mxCell id="F1xKsCpg9n-DJjHn_XTE-28" style="edgeStyle=none;curved=1;rounded=0;sketch=1;hachureGap=4;jiggle=2;curveFitting=1;orthogonalLoop=1;jettySize=auto;html=1;fontFamily=Architects Daughter;fontSource=https%3A%2F%2Ffonts.googleapis.com%2Fcss%3Ffamily%3DArchitects%2BDaughter;fontSize=16;startSize=8;endSize=8;" edge="1" parent="1" source="F1xKsCpg9n-DJjHn_XTE-24">
          <mxGeometry relative="1" as="geometry">
            <mxPoint x="720" y="-348" as="targetPoint" />
            <Array as="points">
              <mxPoint x="420" y="-396" />
            </Array>
          </mxGeometry>
        </mxCell>
        <mxCell id="F1xKsCpg9n-DJjHn_XTE-24" value="On left side: min&amp;amp;max [3, 6]" style="text;html=1;align=center;verticalAlign=middle;resizable=0;points=[];autosize=1;strokeColor=none;fillColor=none;fontSize=20;fontFamily=Architects Daughter;" vertex="1" parent="1">
          <mxGeometry x="324" y="-120" width="288" height="36" as="geometry" />
        </mxCell>
        <mxCell id="F1xKsCpg9n-DJjHn_XTE-27" style="edgeStyle=none;curved=1;rounded=0;sketch=1;hachureGap=4;jiggle=2;curveFitting=1;orthogonalLoop=1;jettySize=auto;html=1;fontFamily=Architects Daughter;fontSource=https%3A%2F%2Ffonts.googleapis.com%2Fcss%3Ffamily%3DArchitects%2BDaughter;fontSize=16;startSize=8;endSize=8;" edge="1" parent="1" source="F1xKsCpg9n-DJjHn_XTE-26">
          <mxGeometry relative="1" as="geometry">
            <mxPoint x="960.0000000000002" y="-348" as="targetPoint" />
            <Array as="points">
              <mxPoint x="1164" y="-312" />
            </Array>
          </mxGeometry>
        </mxCell>
        <mxCell id="F1xKsCpg9n-DJjHn_XTE-26" value="On right side: min&amp;amp;max [7, 1]" style="text;html=1;align=center;verticalAlign=middle;resizable=0;points=[];autosize=1;strokeColor=none;fillColor=none;fontSize=20;fontFamily=Architects Daughter;" vertex="1" parent="1">
          <mxGeometry x="1104" y="-132" width="288" height="36" as="geometry" />
        </mxCell>
        <mxCell id="F1xKsCpg9n-DJjHn_XTE-30" value="With comparing with Root, we will find the min &amp;amp; max&lt;br&gt;left_side (3, 6), right_side (1, 7), root (2)&amp;nbsp;&lt;br&gt;= [1, 2, 3, 6, 7]&lt;br&gt;Min= 1&lt;br&gt;Max =7" style="text;html=1;align=center;verticalAlign=middle;resizable=0;points=[];autosize=1;strokeColor=none;fillColor=none;fontSize=20;fontFamily=Architects Daughter;" vertex="1" parent="1">
          <mxGeometry x="554" y="-497" width="516" height="132" as="geometry" />
        </mxCell>
      </root>
    </mxGraphModel>
  </diagram>
</mxfile>
